<svg height="480pt" viewBox="0 0 480.004 480" width="480pt" xmlns="http://www.w3.org/2000/svg"><path d="m232.003906 344.003906h16v-27.054687l11.574219-5.785157-7.152344-14.320312-12.421875 6.214844-12.425781-6.214844-7.152344 14.320312 11.578125 5.785157zm0 0"/><path d="m128.003906 440.003906c0 27.488282 58.054688 40 112 40 53.941406 0 112-12.511718 112-40 0-23.144531-40.441406-32.792968-64-36.457031v-38.589844l11.574219-5.792969c2.710937-1.359374 4.425781-4.128906 4.425781-7.160156v-48c0-16.136718-12-29.511718-27.554687-31.695312 2.320312-5.089844 3.554687-10.632813 3.554687-16.304688 0-22.054687-17.945312-40-40-40-22.058594 0-40 17.945313-40 40 0 5.671875 1.230469 11.214844 3.550782 16.304688-15.550782 2.183594-27.550782 15.558594-27.550782 31.695312v48c0 3.03125 1.710938 5.800782 4.421875 7.160156l11.578125 5.785157v38.589843c-23.5625 3.671876-64 13.320313-64 36.464844zm64-136c0-8.824218 7.175782-16 16-16h11.03125c3.335938 0 6.320313-2.070312 7.488282-5.183594 1.167968-3.113281.285156-6.640624-2.226563-8.832031-5.34375-4.6875-8.292969-11.074219-8.292969-17.984375 0-13.230468 10.765625-24 24-24 13.230469 0 24 10.769532 24 24 0 6.910156-2.953125 13.296875-8.304687 17.976563-2.511719 2.191406-3.394531 5.71875-2.226563 8.832031 1.167969 3.113281 4.160156 5.191406 7.496094 5.191406h11.035156c8.820313 0 16 7.175782 16 16v43.054688l-11.578125 5.792968c-2.710937 1.351563-4.421875 4.121094-4.421875 7.152344v72h-64v-72c0-3.03125-1.714844-5.800781-4.425781-7.160156l-11.574219-5.785156zm8 144h80c4.414063 0 8-3.574218 8-8v-20.246094c33.75 5.582032 48 15.652344 48 20.246094 0 8.464844-36.449218 24-96 24-59.554687 0-96-15.535156-96-24 0-4.59375 14.246094-14.664062 48-20.246094v20.246094c0 4.425782 3.582032 8 8 8zm0 0"/><path d="m152.609375 91.066406c1.242187 2.992188 4.160156 4.9375 7.394531 4.9375h32v112h16v-120c0-4.425781-3.585937-8-8-8h-20.691406l60.691406-60.6875 60.6875 60.6875h-28.6875c-4.417968 0-8 3.574219-8 8v120h16v-112h40c3.230469 0 6.148438-1.945312 7.390625-4.9375 1.238281-2.992187.550781-6.429687-1.738281-8.71875l-80-80c-3.125-3.128906-8.183594-3.128906-11.308594 0l-80 80c-2.289062 2.289063-2.976562 5.726563-1.738281 8.71875zm0 0"/><path d="m82.347656 365.660156c1.527344 1.527344 3.574219 2.34375 5.65625 2.34375 1.03125 0 2.070313-.191406 3.0625-.609375 2.984375-1.230469 4.9375-4.160156 4.9375-7.390625v-32h64v-16h-72c-4.417968 0-8 3.574219-8 8v20.6875l-60.691406-60.6875 60.691406-60.6875v28.6875c0 4.425782 3.582032 8 8 8h72v-16h-64v-40c0-3.230468-1.953125-6.160156-4.9375-7.390625-3-1.257812-6.433594-.554687-8.71875 1.734375l-80 80c-3.128906 3.128906-3.128906 8.183594 0 11.3125zm0 0"/><path d="m477.65625 274.347656-80-80c-2.292969-2.289062-5.726562-2.992187-8.71875-1.734375-2.984375 1.230469-4.933594 4.160157-4.933594 7.390625v32h-64v16h72c4.414063 0 8-3.574218 8-8v-20.6875l60.6875 60.6875-60.6875 60.6875v-28.6875c0-4.425781-3.585937-8-8-8h-72v16h64v40c0 3.230469 1.949219 6.160156 4.933594 7.390625.992188.417969 2.03125.609375 3.066406.609375 2.078125 0 4.125-.816406 5.652344-2.34375l80-80c3.128906-3.128906 3.128906-8.183594 0-11.3125zm0 0"/><path d="m232.003906 184.003906h16v16h-16zm0 0"/><path d="m136.003906 272.003906h16v16h-16zm0 0"/><path d="m328.003906 272.003906h16v16h-16zm0 0"/></svg>