<svg height="480pt" viewBox="-40 0 480 480" width="480pt" xmlns="http://www.w3.org/2000/svg"><path d="m336 48v-48h-336v432h64v48h336v-432zm-320-32h304v400h-304zm368 448h-304v-32h256v-368h48zm0 0"/><path d="m232.433594 148.246094c-26.851563-28.949219-69.703125-36.457032-104.796875-18.363282-35.09375 18.097657-53.828125 57.363282-45.8125 96.023438 8.015625 38.664062 40.8125 67.246094 80.207031 69.902344 2.03125.128906 4.046875.199218 6.058594.199218 32.0625.027344 61.597656-17.425781 77.042968-45.523437 15.445313-28.101563 14.347657-62.386719-2.859374-89.445313l31.382812-31.382812-11.3125-11.3125zm7.40625 64.59375c-2.628906 39.035156-35.945313 68.824218-75.03125 67.089844-39.082032-1.734376-69.628906-34.359376-68.789063-73.472657.839844-39.113281 32.753907-70.398437 71.875-70.457031 1.640625 0 3.296875.054688 4.953125.175781 18.519532 1.246094 35.828125 9.628907 48.289063 23.382813l-69.136719 69.128906-26.34375-26.34375-11.3125 11.3125 37.65625 37.65625 78.664062-78.664062c6.933594 12.207031 10.125 26.183593 9.175782 40.191406zm0 0"/><path d="m64 320h208v16h-208zm0 0"/><path d="m64 352h88v16h-88zm0 0"/><path d="m168 352h104v16h-104zm0 0"/><path d="m256 40h-176v56h176zm-16 40h-144v-24h144zm0 0"/></svg>