<svg height="512" viewBox="0 0 60 60" width="512" xmlns="http://www.w3.org/2000/svg"><g id="001---Mortgage" transform="translate(0 -1)"><path id="Shape" d="m30 20c0-2.7614237-2.2385763-5-5-5s-5 2.2385763-5 5 2.2385763 5 5 5c2.7600532-.0033061 4.9966939-2.2399468 5-5zm-5 3c-1.6568542 0-3-1.3431458-3-3s1.3431458-3 3-3 3 1.3431458 3 3-1.3431458 3-3 3z"/><path id="Shape" d="m46 33c-.327 0-.648.027-.97.049v-6.279c.7736796.431843 1.746121.2415827 2.3-.45l2.27-2.808c.6192558-.7758038.5084286-1.9035819-.25-2.544l-6.35-5.354v-10.614c0-1.1045695-.8954305-2-2-2h-4c-1.1045695 0-2 .8954305-2 2v3.865l-8.789-7.414c-.6906877-.59889756-1.7153682-.60314758-2.411-.01l-23.143 19.523c-.76314986.6387418-.87722482 1.7697263-.257 2.548l2.263 2.8c.31054155.3895506.76683431.6352189 1.263.68.053.005.106.007.159.007.30844701-.0014803.61150984-.080944.881-.231v22.4c-.00132769.4848969.19016124.950432.53228528 1.2940566.34212405.3436246.8068167.537149 1.29171472.5379434h25.8c2.0599653 6.9093309 9.0304984 11.1243535 16.1060668 9.7392028 7.0755684-1.3851508 11.9421452-7.9174687 11.2446796-15.0935297-.6974656-7.1760611-6.7308713-12.6489729-13.9407464-12.6456731zm-9-28h4v8.927l-4-3.375zm-34.931 17.39 22.931-19.345 10.348 8.73.007.01 6 5.06h.007l6.57 5.542-2.044 2.53-1.088-.933c-.0680671-.0810756-.1487711-.1506364-.239-.206l-18.33-15.734c-.3381992-.3036919-.77646-.47208943-1.231-.473-.4459445-.0020471-.8767726.1615179-1.209.459l-18.471 15.855c-.02580832.0196209-.05051265.0406529-.074.063l-1.133.973zm10.931 26.61v-18h10v18zm12 0v-18c0-1.1045695-.8954305-2-2-2h-10c-1.1045695 0-2 .8954305-2 2v18h-4.03v-23.9l18.03-15.477 18.03 15.477v8.221c-.6913589.1529359-1.3700056.3585358-2.03.615v-2.936c0-1.1045695-.8954305-2-2-2h-10c-1.1045695 0-2 .8954305-2 2v5c0 1.1045695.8954305 2 2 2h6.292c-2.5977929 3.0346847-3.7416516 7.0520684-3.132 11zm12.368-13h-8.368v-5h10v3.894c-.5691701.3300875-1.1145061.6996596-1.632 1.106zm8.632 23c-6.627417 0-12-5.372583-12-12s5.372583-12 12-12 12 5.372583 12 12c-.0071648 6.624447-5.375553 11.9928352-12 12z"/><path id="Path" d="m16 39c-.5522847 0-1 .4477153-1 1v1c0 .5522847.4477153 1 1 1s1-.4477153 1-1v-1c0-.5522847-.4477153-1-1-1z"/><path id="Shape" d="m49 43c0 .5522847.4477153 1 1 1s1-.4477153 1-1c-.0029983-2.3751008-1.6735832-4.4215673-4-4.9v-.1c0-.5522847-.4477153-1-1-1s-1 .4477153-1 1v.1c-2.330324.4731925-4.0050126 2.5221184-4.0050126 4.9s1.6746886 4.4268075 4.0050126 4.9v5.917c-1.1946951-.4223781-1.9951701-1.5498471-2-2.817 0-.5522847-.4477153-1-1-1s-1 .4477153-1 1c.0029983 2.3751008 1.6735832 4.4215673 4 4.9v.1c0 .5522847.4477153 1 1 1s1-.4477153 1-1v-.1c2.330324-.4731925 4.0050126-2.5221184 4.0050126-4.9s-1.6746886-4.4268075-4.0050126-4.9v-5.916c1.1943509.4222546 1.9947486 1.5492146 2 2.816zm-6 0c.0052514-1.2667854.8056491-2.3937454 2-2.816v5.632c-1.1943509-.4222546-1.9947486-1.5492146-2-2.816zm6 8c-.0052514 1.2667854-.8056491 2.3937454-2 2.816v-5.632c1.1943509.4222546 1.9947486 1.5492146 2 2.816z"/></g></svg>