<svg height="512pt" viewBox="0 0 512 512" width="512pt" xmlns="http://www.w3.org/2000/svg"><path d="m86 256c0-5.519531-4.480469-10-10-10s-10 4.480469-10 10 4.480469 10 10 10 10-4.480469 10-10zm0 0"/><path d="m256 66c-90.132812 0-166.148438 63.273438-185.332031 148.03125-1.222657 5.386719 2.15625 10.742188 7.542969 11.960938 5.386718 1.214843 10.742187-2.15625 11.960937-7.542969 17.375-76.746094 87.113281-132.449219 165.828125-132.449219 93.738281 0 170 76.261719 170 170s-76.261719 170-170 170c-78.714844 0-148.453125-55.703125-165.828125-132.449219-1.21875-5.386719-6.566406-8.765625-11.960937-7.542969-5.386719 1.21875-8.765626 6.574219-7.542969 11.960938 19.199219 84.816406 95.265625 148.03125 185.332031 148.03125 104.765625 0 190-85.234375 190-190s-85.234375-190-190-190zm0 0"/><path d="m256 0c-137.519531 0-256 117.722656-256 256 0 137.890625 118.117188 256 256 256 137.519531 0 256-117.722656 256-256 0-137.890625-118.117188-256-256-256zm0 492c-125.71875 0-236-110.28125-236-236s110.28125-236 236-236 236 110.28125 236 236-110.28125 236-236 236zm0 0"/><path d="m176 286c-5.523438 0-10 4.476562-10 10s4.476562 10 10 10h10v70c0 5.523438 4.476562 10 10 10s10-4.476562 10-10v-70h70c5.523438 0 10-4.476562 10-10s-4.476562-10-10-10h-70v-20h80c16.019531 0 31.085938-6.242188 42.421875-17.578125s17.578125-26.402344 17.578125-42.421875c0-33.085938-26.914062-60-60-60h-90c-5.523438 0-10 4.476562-10 10v90h-10c-5.523438 0-10 4.476562-10 10s4.476562 10 10 10h10v20zm30-120h80c22.054688 0 40 17.945312 40 40 0 10.679688-4.164062 20.722656-11.722656 28.277344-7.558594 7.558594-17.597656 11.722656-28.277344 11.722656h-80zm0 0"/></svg>