<svg xmlns="http://www.w3.org/2000/svg" style="display:none"><symbol id="arrow-point-to-right" viewBox="0 0 451.8 451.8"><path d="M203.6 345.4L9.3 151.2c-12.4-12.4-12.4-32.4 0-44.8C21.7 94 41.7 94 54 106.4l171.9 171.9 171.9-171.9c12.4-12.4 32.4-12.4 44.7 0 12.4 12.4 12.4 32.4 0 44.8L248.3 345.4c-6.2 6.2-14.3 9.3-22.4 9.3-8.1 0-16.2-3.1-22.3-9.3z"/></symbol><symbol id="business-and-finance" viewBox="0 -13 512.00014 512"><path d="M511.074 401.508c-2.402-11.563-9.199-21.442-19.14-27.82-9.942-6.375-21.75-8.434-33.266-5.801l-53.367 12.218V358.29c10.703-10.082 21.847-23.246 29.773-35.277 13.899-21.098 23.735-44.266 29.235-68.848 6.539-29.246 6.68-60.207.402-89.547-1.156-5.398-6.473-8.844-11.871-7.683-5.402 1.152-8.84 6.468-7.688 11.87 5.68 26.536 5.555 54.544-.363 80.993-4.969 22.21-13.86 43.144-26.418 62.21-3.723 5.653-8.238 11.583-13.07 17.247V218.41c0-5.523-4.477-10-10-10h-79.106V101.621c0-5.508-4.457-9.98-9.965-10l-89.105-.3h-.031a9.978 9.978 0 0 0-7.059 2.917 9.992 9.992 0 0 0-2.941 7.082v55.551h-79.117c-5.52 0-10 4.477-10 10v99.027H95.695v-13.582c0-5.52-4.476-9.996-10-9.996H75.438a189.085 189.085 0 0 1-2.997-29.129c-.586-23.707 3.172-46.902 11.164-68.949a188.49 188.49 0 0 1 6.29-15.226c2.332-5.008.16-10.957-4.844-13.29-5.008-2.324-10.957-.16-13.285 4.848a206.568 206.568 0 0 0-6.961 16.852c-8.844 24.394-13 50.054-12.36 76.258a209.717 209.717 0 0 0 2.703 28.636H10c-5.523 0-10 4.477-10 10v175.774c0 5.523 4.477 10 10 10h75.695c5.524 0 10-4.477 10-10v-9.508h37.618l152.378 59.766c14.227 5.582 29.13 8.39 44.11 8.39 9.988 0 20.02-1.25 29.898-3.762l119.434-30.355c22.672-5.762 36.699-28.215 31.941-51.117zM385.304 228.41v156.274l-26.734 6.12a102.592 102.592 0 0 1-8.703 1.583 101.514 101.514 0 0 1-33.531-.973c-.047-.012-.094-.02-.14-.031v-15.164c7.624-11.375 10.152-25.797 6.156-38.961a44.908 44.908 0 0 0-4.707-10.485 45.489 45.489 0 0 0-1.43-2.18c-.004-.011-.012-.019-.02-.03v-96.157h69.11zm-158.21-117.055l69.105.23V308.68l-38.62-15.985-30.485-12.62zm-89.117 65.516h69.105v94.918l-12.402-5.133a9.985 9.985 0 0 0-3.825-.761h-52.878zM75.695 418.094H20V262.316h47.18c.02 0 .043.004.066.004.02 0 .035-.004.055-.004h8.394zm398.512 15.148l-119.434 30.356c-20.617 5.238-41.98 3.898-61.78-3.864l-154.138-60.457a9.988 9.988 0 0 0-3.652-.687H95.695V285.898h93.168l64.703 26.782 35.407 14.656c12.527 5.195 18.523 19.89 13.386 32.402-1.03 2.512-2.308 4.899-4.004 7.028-6.261 7.902-16.57 11.386-26.21 9.043l-.235-.059a24.695 24.695 0 0 1-1.722-.5l-67.286-25.867c-.547-.211-.836-.32-.836-.32-5.152-1.985-10.937.59-12.921 5.746-1.98 5.152.59 10.941 5.746 12.921 0 0 37.937 14.586 66.867 25.743.582.226 1.16.437 1.742.632l22.215 8.543c6.715 2.582 13.398 5.153 20.387 6.938a120.772 120.772 0 0 0 36.418 3.582 121.941 121.941 0 0 0 20.52-2.867l34.495-7.895c.035-.008.07-.023.106-.031l65.492-14.992c6.23-1.426 12.625-.313 18 3.137 5.383 3.453 9.058 8.8 10.36 15.058a23.542 23.542 0 0 1-17.286 27.664zm0 0M127.879 71.125a9.96 9.96 0 0 0 6.7-2.578c17.843-16.117 39.151-28.973 61.632-37.18 24.355-8.89 51.055-12.683 77.215-10.965a187.562 187.562 0 0 1 54.52 11.875c5.156 1.965 10.937-.62 12.902-5.785 1.968-5.16-.621-10.937-5.785-12.902A207.514 207.514 0 0 0 274.738.445c-28.914-1.898-58.441 2.297-85.386 12.137-24.872 9.078-48.446 23.3-68.176 41.121-4.102 3.703-4.422 10.027-.719 14.125a9.96 9.96 0 0 0 7.422 3.297zm0 0"/><path d="M354.887 142.492a9.966 9.966 0 0 0 6.554 2.45 9.993 9.993 0 0 0 7.555-3.438l82.274-94.707c3.625-4.168 3.18-10.484-.989-14.106-4.172-3.62-10.484-3.18-14.105.989l-82.278 94.707c-3.625 4.168-3.18 10.484.989 14.105zm0 0M428.617 99.738c-13.844 0-25.105 11.262-25.105 25.106s11.261 25.105 25.105 25.105 25.106-11.265 25.106-25.105c0-13.844-11.262-25.106-25.106-25.106zm0 30.211a5.11 5.11 0 0 1-5.105-5.105 5.112 5.112 0 0 1 5.105-5.106 5.115 5.115 0 0 1 5.106 5.106 5.112 5.112 0 0 1-5.106 5.105zm0 0M373.086 77.477c13.844 0 25.105-11.262 25.105-25.106s-11.261-25.105-25.105-25.105S347.98 38.527 347.98 52.37s11.262 25.106 25.106 25.106zm0-30.215a5.113 5.113 0 0 1 5.105 5.11 5.112 5.112 0 0 1-5.105 5.105 5.112 5.112 0 0 1-5.106-5.106c0-2.816 2.29-5.11 5.106-5.11zm0 0M92.328 94.625c1.602 3.844 5.543 6.383 9.719 6.164 4.129-.215 7.746-3.008 9.023-6.93 1.29-3.957-.117-8.464-3.425-10.992-3.372-2.57-8.106-2.73-11.637-.383-3.918 2.606-5.488 7.801-3.68 12.141zm0 0"/></symbol><symbol id="charity" viewBox="0 0 512 512"><path d="M155.362 334.191c9.122 0 17.698-3.55 24.141-10.001 4.42-4.412 7.228-9.779 8.713-15.42l17.929 17.92c6.443 6.451 15.019 10.001 24.132 10.001 9.122 0 17.69-3.55 24.132-10.001 6.451-6.443 10.001-15.019 10.001-24.132 0-9.122-3.55-17.69-10.001-24.141l-15.403-15.403c5.751-1.519 11.076-4.403 15.403-8.73 6.451-6.451 10.001-15.019 10.001-24.141 0-9.114-3.55-17.69-10.001-24.132l-21.444-21.444c5.76-1.519 11.085-4.403 15.411-8.73 6.451-6.443 10.001-15.01 10.001-24.132s-3.55-17.69-10.001-24.132l-60.518-60.527V8.533A8.536 8.536 0 0 0 179.325 0a8.536 8.536 0 0 0-8.533 8.533V53.93c-12.365-4.813-27.401-2.389-37.06 7.262-10.59 10.607-12.604 26.436-6.323 39.185-6.622 1.169-12.919 4.19-17.818 9.096-10.513 10.522-12.578 26.197-6.468 38.904a33.887 33.887 0 0 0-17.664 9.361c-10.513 10.522-12.587 26.206-6.468 38.912a33.854 33.854 0 0 0-17.664 9.361c-6.451 6.443-10.001 15.019-10.001 24.132 0 9.122 3.55 17.69 10.001 24.141l69.905 69.905c6.441 6.452 15.017 10.002 24.13 10.002zm-9.566-260.932a16.978 16.978 0 0 1 12.066-4.992c4.565 0 8.849 1.775 12.075 4.992l3.354 3.354 63.019 63.027c3.226 3.226 5 7.509 5 12.066a16.95 16.95 0 0 1-5 12.066c-6.451 6.443-17.69 6.443-24.132 0L145.797 97.4c-6.648-6.657-6.648-17.485-.001-24.141zm-24.141 48.281c3.226-3.226 7.518-5.001 12.075-5.001s8.841 1.775 12.066 5.001l96.546 96.538c3.226 3.226 5 7.509 5 12.066a16.96 16.96 0 0 1-5 12.075c-6.443 6.443-17.69 6.443-24.132 0l-37.547-37.547-46.933-46.933-.017-.017-12.058-12.049c-6.647-6.656-6.647-17.485 0-24.133zm-24.132 48.265a16.983 16.983 0 0 1 12.075-4.992c4.548 0 8.832 1.766 12.049 4.975l46.95 46.95 73.745 73.754c3.226 3.217 5 7.501 5 12.066a16.95 16.95 0 0 1-5 12.066c-6.443 6.443-17.69 6.443-24.132 0l-38.69-38.682c0-.009-.009-.017-.017-.026l-34.953-34.953-47.019-47.019c-6.655-6.654-6.655-17.483-.008-24.139zM68.39 230.144c0-4.557 1.775-8.841 5.001-12.066a16.978 16.978 0 0 1 12.066-4.992c4.565 0 8.849 1.775 12.066 4.992l4.924 4.924 65.016 65.016c6.622 6.656 6.622 17.459-.026 24.107-6.443 6.443-17.69 6.451-24.141 0L73.391 242.22a16.96 16.96 0 0 1-5.001-12.076zM426.543 213.333a8.53 8.53 0 0 0 8.533 8.533 8.536 8.536 0 0 0 8.533-8.533c0-61.679-25.745-98.031-41.131-119.748-4.488-6.34-10.068-14.225-10.068-16.785V8.533A8.536 8.536 0 0 0 383.877 0a8.53 8.53 0 0 0-8.533 8.533V76.8c0 7.987 5.538 15.821 13.218 26.65 15.12 21.359 37.981 53.632 37.981 109.883zM179.324 477.867a8.536 8.536 0 0 0-8.533 8.533v17.067a8.536 8.536 0 0 0 8.533 8.533 8.536 8.536 0 0 0 8.533-8.533V486.4a8.536 8.536 0 0 0-8.533-8.533z"/><path d="M405.67 223.3c-20.07-13.38-83.106-49.937-86.246-51.738-5.7-2.842-12.032-2.449-17.818 1.135-12.476 7.706-20.13 28.86-20.13 40.636 0 16.393 11.503 26.359 23.689 36.907 4.224 3.652 8.585 7.441 12.945 11.793l42.667 42.667c2.825 2.833 5.495 5.504 5.862 6.306.154.478.171 2.295.171 4.079-2.014 5.393-17.775 23.415-31.343 37l-94.131 85.589c-2.483 2.441-7.723 6.059-11.059 6.059h-76.8c-9.412 0-17.067-7.654-17.067-17.067s7.654-17.067 17.067-17.067h59.733c11.725 0 21.965-9.907 23.1-11.034l59.733-59.733a8.54 8.54 0 0 0 0-12.066c-3.337-3.337-8.738-3.337-12.066 0l-59.708 59.708c-2.483 2.441-7.723 6.059-11.059 6.059h-85.333c-9.412 0-17.067-7.654-17.067-17.067 0-9.412 7.654-17.067 17.067-17.067h68.267c4.71 0 8.533-3.823 8.533-8.533s-3.823-8.533-8.533-8.533H102.277c-9.412 0-17.067-7.654-17.067-17.067 0-4.215 1.544-8.252 4.343-11.375a8.542 8.542 0 0 0-.657-12.058 8.53 8.53 0 0 0-12.049.666 34.047 34.047 0 0 0-8.704 22.767c0 17.596 13.423 31.949 30.541 33.775-3.072 5.12-4.941 11.034-4.941 17.425 0 17.596 13.423 31.949 30.541 33.775-3.072 5.12-4.941 11.034-4.941 17.425 0 18.825 15.309 34.133 34.133 34.133h76.8c11.725 0 21.965-9.907 22.81-10.752l94.157-85.615c36.634-36.634 36.634-45.713 36.634-48.7 0-11.324-1.391-13.457-11.034-23.1l-42.667-42.667c-4.787-4.796-9.6-8.951-13.841-12.629-11.691-10.129-17.792-15.795-17.792-24.004 0-10.769 9.182-26.513 12.783-26.752.648.375 65.246 37.828 84.881 50.918 22.067 14.711 47.403 37.871 47.403 86.767 0 36.625-28.8 86.281-47.855 119.134-13.619 23.475-20.164 35.106-20.164 42.999v17.067c0 4.71 3.823 8.533 8.533 8.533s8.533-3.823 8.533-8.533v-16.973c.35-4.335 9.651-20.378 17.86-34.526 21.163-36.497 50.159-86.477 50.159-127.701 0-57.632-31.394-85.221-55.006-100.965z"/></symbol><symbol id="clock" viewBox="0 0 512 512"><path d="M437.02 74.98C388.667 26.628 324.38 0 256 0S123.333 26.628 74.98 74.98C26.628 123.333 0 187.62 0 256s26.628 132.667 74.98 181.02C123.333 485.372 187.62 512 256 512s132.667-26.628 181.02-74.98C485.372 388.667 512 324.38 512 256s-26.628-132.667-74.98-181.02zM256 491.602c-129.911 0-235.602-105.69-235.602-235.602S126.089 20.398 256 20.398 491.602 126.089 491.602 256 385.911 491.602 256 491.602z"/><path d="M256 40.201C137.008 40.201 40.201 137.008 40.201 256S137.008 471.799 256 471.799 471.799 374.992 471.799 256 374.992 40.201 256 40.201zm174.07 304.522l-29.412-16.982c-4.877-2.815-11.115-1.145-13.932 3.733s-1.145 11.116 3.733 13.932l29.376 16.96a196.985 196.985 0 0 1-57.467 57.467l-16.96-29.376c-2.817-4.879-9.055-6.55-13.932-3.733-4.878 2.816-6.55 9.054-3.733 13.932l16.982 29.412c-23.785 12.172-50.376 19.611-78.524 21.065v-33.988c0-5.633-4.566-10.199-10.199-10.199s-10.199 4.566-10.199 10.199v33.988c-28.148-1.454-54.738-8.893-78.524-21.065l16.982-29.412c2.817-4.878 1.145-11.116-3.733-13.932-4.877-2.815-11.116-1.145-13.932 3.733l-16.96 29.376a196.961 196.961 0 0 1-57.467-57.467l29.376-16.96c4.878-2.816 6.55-9.054 3.733-13.932-2.816-4.878-9.055-6.55-13.932-3.733L81.93 344.723c-12.172-23.785-19.611-50.376-21.065-78.524h33.988c5.633 0 10.199-4.566 10.199-10.199s-4.566-10.199-10.199-10.199H60.865c1.454-28.148 8.893-54.738 21.065-78.524l29.412 16.982a10.194 10.194 0 0 0 13.932-3.733c2.817-4.878 1.145-11.116-3.733-13.932l-29.376-16.96a196.961 196.961 0 0 1 57.467-57.467l16.96 29.376a10.194 10.194 0 0 0 13.932 3.733c4.878-2.816 6.55-9.054 3.733-13.932l-16.98-29.414c23.784-12.172 50.376-19.611 78.524-21.065v33.988c0 5.633 4.566 10.199 10.199 10.199s10.199-4.566 10.199-10.199V60.865c28.148 1.454 54.738 8.893 78.524 21.065l-16.982 29.412c-2.817 4.878-1.145 11.116 3.733 13.932a10.194 10.194 0 0 0 13.932-3.733l16.96-29.376a196.961 196.961 0 0 1 57.467 57.467l-29.376 16.96c-4.878 2.816-6.55 9.054-3.733 13.932a10.194 10.194 0 0 0 13.932 3.733l29.412-16.982c12.172 23.785 19.611 50.376 21.065 78.524h-33.988c-5.633 0-10.199 4.566-10.199 10.199s4.566 10.199 10.199 10.199h33.988c-1.452 28.15-8.89 54.74-21.063 78.526z"/><path d="M266.199 227.604v-65.437c0-5.633-4.566-10.199-10.199-10.199s-10.199 4.566-10.199 10.199v65.437c-11.633 4.191-19.974 15.336-19.974 28.396 0 7.418 2.696 14.215 7.153 19.474l-16.189 28.041c-2.817 4.878-1.145 11.116 3.733 13.932a10.194 10.194 0 0 0 13.932-3.733l16.181-28.027c1.742.314 3.532.487 5.363.487 16.638 0 30.173-13.535 30.173-30.173 0-13.06-8.341-24.205-19.974-28.397zM256 265.775c-5.39 0-9.775-4.385-9.775-9.775 0-5.39 4.385-9.775 9.775-9.775 5.39 0 9.775 4.385 9.775 9.775 0 5.39-4.385 9.775-9.775 9.775zM256 118.311c-5.633 0-10.199 4.566-10.199 10.199v4.08c0 5.633 4.566 10.199 10.199 10.199s10.199-4.566 10.199-10.199v-4.08c0-5.633-4.566-10.199-10.199-10.199z"/></symbol><symbol id="decision" viewBox="0 0 480.004 480"><path d="M232.004 344.004h16v-27.055l11.574-5.785-7.152-14.32-12.422 6.215-12.426-6.215-7.152 14.32 11.578 5.785zm0 0"/><path d="M128.004 440.004c0 27.488 58.055 40 112 40 53.941 0 112-12.512 112-40 0-23.145-40.441-32.793-64-36.457v-38.59l11.574-5.793a8.013 8.013 0 0 0 4.426-7.16v-48c0-16.137-12-29.512-27.555-31.695a39.27 39.27 0 0 0 3.555-16.305c0-22.055-17.945-40-40-40-22.059 0-40 17.945-40 40 0 5.672 1.23 11.215 3.55 16.305-15.55 2.183-27.55 15.558-27.55 31.695v48a8.01 8.01 0 0 0 4.422 7.16l11.578 5.785v38.59c-23.563 3.672-64 13.32-64 36.465zm64-136c0-8.824 7.176-16 16-16h11.031a8 8 0 0 0 7.488-5.184 8.001 8.001 0 0 0-2.226-8.832c-5.344-4.687-8.293-11.074-8.293-17.984 0-13.23 10.766-24 24-24 13.23 0 24 10.77 24 24 0 6.91-2.953 13.297-8.305 17.976a8.001 8.001 0 0 0-2.226 8.832 8.017 8.017 0 0 0 7.496 5.192h11.035c8.82 0 16 7.176 16 16v43.055l-11.578 5.793a7.989 7.989 0 0 0-4.422 7.152v72h-64v-72c0-3.031-1.715-5.8-4.426-7.16l-11.574-5.785zm8 144h80c4.414 0 8-3.574 8-8v-20.246c33.75 5.582 48 15.652 48 20.246 0 8.465-36.45 24-96 24-59.555 0-96-15.535-96-24 0-4.594 14.246-14.664 48-20.246v20.246c0 4.426 3.582 8 8 8zm0 0M152.61 91.066a8.005 8.005 0 0 0 7.394 4.938h32v112h16v-120c0-4.426-3.586-8-8-8h-20.691l60.69-60.688 60.688 60.688h-28.687c-4.418 0-8 3.574-8 8v120h16v-112h40a8.004 8.004 0 0 0 7.39-4.938 8 8 0 0 0-1.738-8.718l-80-80a7.985 7.985 0 0 0-11.308 0l-80 80a8 8 0 0 0-1.739 8.718zm0 0M82.348 365.66a8.001 8.001 0 0 0 8.718 1.735 8.004 8.004 0 0 0 4.938-7.391v-32h64v-16h-72c-4.418 0-8 3.574-8 8v20.687l-60.692-60.687 60.692-60.688v28.688c0 4.426 3.582 8 8 8h72v-16h-64v-40c0-3.23-1.953-6.16-4.938-7.39a7.959 7.959 0 0 0-8.718 1.734l-80 80a7.99 7.99 0 0 0 0 11.312zm0 0M477.656 274.348l-80-80c-2.293-2.29-5.726-2.993-8.719-1.735a8 8 0 0 0-4.933 7.39v32h-64v16h72c4.414 0 8-3.573 8-8v-20.687l60.687 60.688-60.687 60.687v-28.687c0-4.426-3.586-8-8-8h-72v16h64v40a8 8 0 0 0 8 8 7.999 7.999 0 0 0 5.652-2.344l80-80a7.99 7.99 0 0 0 0-11.312zm0 0"/><path d="M232.004 184.004h16v16h-16zm0 0M136.004 272.004h16v16h-16zm0 0M328.004 272.004h16v16h-16zm0 0"/></symbol><symbol id="document" viewBox="-40 0 480 480"><path d="M336 48V0H0v432h64v48h336V48zM16 16h304v400H16zm368 448H80v-32h256V64h48zm0 0"/><path d="M232.434 148.246c-26.852-28.95-69.704-36.457-104.797-18.363-35.094 18.097-53.828 57.363-45.813 96.023 8.016 38.664 40.813 67.246 80.207 69.903 2.031.128 4.047.199 6.059.199 32.062.027 61.597-17.426 77.043-45.524 15.445-28.101 14.347-62.386-2.86-89.445l31.383-31.383-11.312-11.312zm7.406 64.594c-2.63 39.035-35.945 68.824-75.031 67.09-39.082-1.735-69.63-34.36-68.79-73.473.84-39.113 32.754-70.398 71.876-70.457 1.64 0 3.296.055 4.953.176a71.647 71.647 0 0 1 48.289 23.383L152 228.688l-26.344-26.344-11.312 11.312L152 251.312l78.664-78.664a71.578 71.578 0 0 1 9.176 40.192zm0 0M64 320h208v16H64zm0 0M64 352h88v16H64zm0 0M168 352h104v16H168zm0 0M256 40H80v56h176zm-16 40H96V56h144zm0 0"/></symbol><symbol id="location-pin" viewBox="0 0 413.099 413.099"><path d="M206.549 0c-82.6 0-149.3 66.7-149.3 149.3 0 28.8 9.2 56.3 22 78.899l97.3 168.399c6.1 11 18.4 16.5 30 16.5 11.601 0 23.3-5.5 30-16.5l97.3-168.299c12.9-22.601 22-49.601 22-78.901C355.849 66.8 289.149 0 206.549 0zm0 193.4c-30 0-54.5-24.5-54.5-54.5s24.5-54.5 54.5-54.5 54.5 24.5 54.5 54.5c0 30.1-24.5 54.5-54.5 54.5z"/></symbol><symbol id="molecule" viewBox="0 0 512 512"><path d="M385.51 148.49c-4.177 0-7.985-2.69-9.402-6.615-1.38-3.819-.25-8.226 2.809-10.902 3.278-2.867 8.171-3.26 11.87-.97 3.518 2.177 5.36 6.47 4.51 10.52-.962 4.581-5.099 7.967-9.787 7.967zM427.277 350.442a76.007 76.007 0 0 0-42.658 13.037l-46.228-47.185c14.519-17.382 23.266-39.742 23.266-64.107 0-21.382-6.737-41.221-18.199-57.506l17.196-17.194c3.906-3.905 3.906-10.236.001-14.142-3.904-3.905-10.235-3.905-14.142-.001l-16.169 16.168c-17.961-17.02-42.206-27.475-68.846-27.475-22.074 0-42.503 7.178-59.076 19.321l-27.088-31.196c.169-.249.337-.499.501-.752 6.4-9.83 8.589-21.564 6.162-33.04-5.009-23.689-28.357-38.883-52.051-33.88v.001c-11.477 2.426-21.321 9.176-27.721 19.006-6.4 9.831-8.589 21.564-6.161 33.041 4.364 20.64 22.65 34.833 42.956 34.833 3 0 6.044-.31 9.094-.954a44.064 44.064 0 0 0 12.503-4.698l26.92 31.002c-16.266 17.813-26.199 41.501-26.199 67.465 0 12.765 2.401 24.98 6.775 36.217L106.15 342.07c-11.078-12.896-27.498-21.077-45.793-21.077C27.076 320.993 0 348.066 0 381.345s27.076 60.352 60.357 60.352 60.357-27.073 60.357-60.352a60.03 60.03 0 0 0-4.117-21.912 9.94 9.94 0 0 0 .663-.527l60.26-52.19c17.884 27.442 48.847 45.619 83.976 45.619 23.673 0 45.454-8.255 62.615-22.036l45.505 46.447c-11.693 13.43-18.783 30.967-18.783 50.13 0 42.146 34.291 76.433 76.441 76.433 42.149 0 76.44-34.287 76.44-76.433s-34.287-76.434-76.437-76.434zm-366.92 71.254C38.104 421.696 20 403.595 20 381.345s18.104-40.352 40.357-40.352 40.357 18.102 40.357 40.352-18.104 40.351-40.357 40.351zm83.62-282.846c-12.892 2.733-25.618-5.548-28.347-18.449a23.75 23.75 0 0 1 3.355-17.99c3.485-5.354 8.847-9.029 15.097-10.352v.001c12.897-2.729 25.618 5.549 28.347 18.449a23.754 23.754 0 0 1-3.355 17.991 23.767 23.767 0 0 1-15.097 10.35zm37.362 113.338c0-44.194 35.959-80.149 80.159-80.149s80.159 35.955 80.159 80.149-35.959 80.148-80.159 80.148-80.159-35.954-80.159-80.148zm245.938 231.121c-31.122 0-56.441-25.315-56.441-56.433s25.319-56.434 56.441-56.434c31.121 0 56.44 25.316 56.44 56.434s-25.319 56.433-56.44 56.433zM449.569 133.54c-34.424 0-62.43-28.003-62.43-62.424s28.006-62.425 62.43-62.425C483.994 8.691 512 36.695 512 71.116s-28.006 62.424-62.431 62.424zm0-104.849c-23.396 0-42.43 19.031-42.43 42.425 0 23.393 19.034 42.424 42.43 42.424S492 94.509 492 71.116s-19.034-42.425-42.431-42.425z"/></symbol><symbol id="mortgage" viewBox="0 0 60 60"><path d="M30 19a5 5 0 1 0-10 0 5 5 0 0 0 10 0zm-5 3a3 3 0 1 1 0-6 3 3 0 0 1 0 6z"/><path d="M46 32c-.327 0-.648.027-.97.049V25.77a1.814 1.814 0 0 0 2.3-.45l2.27-2.808a1.833 1.833 0 0 0-.25-2.544L43 14.614V4a2 2 0 0 0-2-2h-4a2 2 0 0 0-2 2v3.865L26.211.451A1.849 1.849 0 0 0 23.8.441L.657 19.964A1.833 1.833 0 0 0 .4 22.512l2.263 2.8a1.825 1.825 0 0 0 1.422.687c.308-.001.612-.08.881-.231v22.4A1.827 1.827 0 0 0 6.79 50h25.8A14 14 0 1 0 46 32zM37 4h4v8.927l-4-3.375zM2.069 21.39L25 2.045l10.348 8.73.007.01 6 5.06h.007l6.57 5.542-2.044 2.53-1.088-.933a.984.984 0 0 0-.239-.206L26.231 7.044A1.848 1.848 0 0 0 25 6.571a1.8 1.8 0 0 0-1.209.459L5.32 22.885a.88.88 0 0 0-.074.063l-1.133.973zM13 48V30h10v18zm12 0V30a2 2 0 0 0-2-2H13a2 2 0 0 0-2 2v18H6.97V24.1L25 8.623 43.03 24.1v8.221c-.691.153-1.37.359-2.03.615V30a2 2 0 0 0-2-2H29a2 2 0 0 0-2 2v5a2 2 0 0 0 2 2h6.292a13.7 13.7 0 0 0-3.132 11zm12.368-13H29v-5h10v3.894c-.57.33-1.115.7-1.632 1.106zM46 58c-6.627 0-12-5.373-12-12s5.373-12 12-12 12 5.373 12 12c-.007 6.624-5.376 11.993-12 12z"/><path d="M16 38a1 1 0 0 0-1 1v1a1 1 0 0 0 2 0v-1a1 1 0 0 0-1-1zM49 42a1 1 0 0 0 2 0 5.009 5.009 0 0 0-4-4.9V37a1 1 0 0 0-2 0v.1a5 5 0 0 0 0 9.8v5.917A3 3 0 0 1 43 50a1 1 0 0 0-2 0 5.009 5.009 0 0 0 4 4.9v.1a1 1 0 0 0 2 0v-.1a5 5 0 0 0 0-9.8v-5.916A3 3 0 0 1 49 42zm-6 0a3 3 0 0 1 2-2.816v5.632A3 3 0 0 1 43 42zm6 8a3 3 0 0 1-2 2.816v-5.632A3 3 0 0 1 49 50z"/></symbol><symbol id="payment-method" viewBox="0 0 512 512"><path d="M172.55 391.902c-.13-.64-.32-1.27-.57-1.88-.25-.6-.56-1.18-.92-1.72a9.57 9.57 0 0 0-1.24-1.52 9.57 9.57 0 0 0-1.52-1.24 9.87 9.87 0 0 0-1.73-.92c-.6-.25-1.23-.45-1.87-.57a9.847 9.847 0 0 0-3.9 0c-.64.12-1.27.32-1.88.57-.6.25-1.18.56-1.72.92-.55.36-1.06.78-1.52 1.24-.46.46-.88.97-1.24 1.52-.37.54-.67 1.12-.92 1.72a9.69 9.69 0 0 0-.57 1.88c-.13.64-.2 1.3-.2 1.95 0 .65.07 1.31.2 1.95.12.64.32 1.27.57 1.87.25.61.55 1.19.92 1.73.36.55.78 1.06 1.24 1.52.46.46.97.88 1.52 1.24.54.361 1.12.671 1.72.921.61.25 1.24.45 1.88.57.64.13 1.3.2 1.95.2.65 0 1.31-.07 1.95-.2.64-.12 1.27-.32 1.87-.57.61-.25 1.19-.561 1.73-.921a9.57 9.57 0 0 0 1.52-1.24c.46-.46.88-.97 1.24-1.52.36-.54.67-1.12.92-1.73a10.098 10.098 0 0 0 .77-3.82c0-.65-.07-1.31-.2-1.95z"/><path d="M459.993 394.982a9.705 9.705 0 0 0-.121-.297c-9.204-21.537-30.79-29.497-56.336-20.772l-69.668 19.266c-4.028-12.198-14.075-22.578-28.281-27.85a11.876 11.876 0 0 0-.265-.094l-76.581-25.992c-6.374-8.239-26.34-29.321-63.723-29.321-26.125 0-49.236 17.922-62.458 37.457H10c-5.523 0-10 4.477-10 10v126.077c0 5.523 4.477 10 10 10h59.457c5.523 0 10-4.477 10-10v-8.634h27.883c5.523 0 10-4.477 10-10v-2.878c16.254 1.418 21.6 4.501 36.528 13.109 11.48 6.62 28.831 16.625 60.077 30.674.145.065.292.127.439.185 5.997 2.359 17.72 6.065 32.173 6.065 10.06 0 21.445-1.797 33.131-7.094l153.991-55.136c.274-.098.544-.208.808-.33 14.717-6.771 36.648-25.854 25.506-54.435zM59.457 473.455H20V367.378h39.457v106.077zm37.883-18.634H79.457v-87.443H97.34v87.443zm329.156-23.747l-153.922 55.111a12.33 12.33 0 0 0-.854.348c-21.437 9.852-41.814 3.954-49.8.849-30.182-13.581-46.291-22.87-58.061-29.657-16.364-9.436-24.249-13.984-46.519-15.823V361.36c9.479-15.536 27.861-31.439 47.679-31.439 33.986 0 48.387 22.105 48.953 22.997a10 10 0 0 0 5.305 4.232l79.475 26.974c12.693 4.764 19.401 15.634 16.318 26.474a19.354 19.354 0 0 1-9.257 11.691 19.367 19.367 0 0 1-14.683 1.758l-89.593-28.392c-5.268-1.669-10.886 1.247-12.554 6.512-1.669 5.265 1.247 10.885 6.512 12.554l89.749 28.441c.095.03.19.059.286.086a39.657 39.657 0 0 0 10.857 1.523c6.638 0 13.203-1.691 19.161-5.011 9.213-5.133 15.875-13.547 18.759-23.692.23-.81.434-1.62.611-2.43l75.083-20.8c10.844-3.704 25.079-5.039 31.417 9.558 6.56 17.137-10.49 26.564-14.922 28.678zM359.06 131.543c-.13-.64-.32-1.27-.58-1.88-.25-.6-.55-1.18-.92-1.72a9.57 9.57 0 0 0-1.24-1.52 9.57 9.57 0 0 0-1.52-1.24c-.54-.36-1.12-.67-1.72-.92a9.81 9.81 0 0 0-1.87-.57 9.898 9.898 0 0 0-3.91 0c-.64.12-1.27.32-1.87.57-.61.25-1.19.56-1.73.92-.55.36-1.06.78-1.52 1.24-.46.46-.88.97-1.24 1.52-.36.54-.67 1.12-.92 1.72a9.69 9.69 0 0 0-.57 1.88c-.13.64-.2 1.3-.2 1.95 0 .65.07 1.31.2 1.95.12.64.32 1.27.57 1.87.25.61.56 1.19.92 1.73.36.55.78 1.06 1.24 1.52.46.46.97.88 1.52 1.24.54.36 1.12.67 1.73.92.6.25 1.23.44 1.87.57s1.3.2 1.95.2c.65 0 1.31-.07 1.96-.2.63-.13 1.26-.32 1.87-.57.6-.25 1.18-.56 1.72-.92a9.57 9.57 0 0 0 1.52-1.24c.46-.46.88-.97 1.24-1.52.37-.54.67-1.12.92-1.73.26-.6.45-1.23.58-1.87.13-.64.19-1.3.19-1.95 0-.65-.06-1.31-.19-1.95z"/><path d="M502 33.891h-59.457c-5.523 0-10 4.477-10 10v8.634H404.66c-5.523 0-10 4.477-10 10v2.878c-16.254-1.419-21.6-4.501-36.527-13.109-11.48-6.62-28.831-16.625-60.078-30.674a8.51 8.51 0 0 0-.44-.185c-10.171-4.002-36.828-11.876-65.299 1.027l-40.24 14.408-33.919-33.918c-3.905-3.905-10.237-3.905-14.142 0L32.657 114.309c-3.602 3.603-4.293 9.85 0 14.143l190.287 190.287c3.045 3.046 10.175 3.967 14.143 0l101.665-101.664c2.643.228 5.386.351 8.229.351 26.126 0 49.236-17.922 62.457-37.456H502c5.523 0 10-4.477 10-10V43.891c0-5.523-4.477-10-10-10zm-350.915-9.726l22.792 22.792c-6.775 4.19-14.608 6.432-22.792 6.432-8.185 0-16.017-2.241-22.792-6.432l22.792-22.792zM76.663 144.173L53.871 121.38l22.792-22.792c4.19 6.775 6.432 14.608 6.432 22.792 0 8.184-2.241 16.017-6.432 22.793zm153.353 153.352l-22.788-22.788c13.913-8.586 31.661-8.586 45.575 0l-22.787 22.788zm37.195-37.194c-22.098-16.03-52.292-16.03-74.39 0L91.07 158.579c7.809-10.74 12.025-23.641 12.025-37.199 0-13.559-4.215-26.459-12.025-37.199l22.817-22.816c10.74 7.809 23.64 12.025 37.199 12.025 13.559 0 26.459-4.216 37.199-12.025l21.629 21.629a39.465 39.465 0 0 0-13.462 4.592c-7.168 3.994-12.792 9.975-16.294 17.211a56.985 56.985 0 0 0-29.915 15.741c-22.225 22.226-22.225 58.389.001 80.615 11.112 11.112 25.709 16.669 40.307 16.669 14.597 0 29.195-5.556 40.308-16.669 7.23-7.23 12.295-16.116 14.832-25.8l33.764 11.459c-3.801 17.608.092 36.132 10.593 50.682l-22.837 22.837zm-60.798-98.313c.088.032.176.064.265.094l19.996 6.787c-1.51 6.815-4.927 13.081-9.957 18.112-14.428 14.426-37.904 14.428-52.33 0-14.428-14.427-14.428-37.902 0-52.33a36.977 36.977 0 0 1 12.062-8.048c1.846 15.362 12.907 29.055 29.964 35.385zm98.044 61.066a43.739 43.739 0 0 1-6.389-20.796 77.755 77.755 0 0 0 17.636 9.549l-11.247 11.247zm90.202-57.101c-9.478 15.538-27.86 31.441-47.678 31.441-3.708 0-7.183-.264-10.432-.734l-.039-.006c-21.596-3.137-33.213-15.411-37.042-20.271-.204-.3-1.073-1.437-1.202-1.626a9.964 9.964 0 0 0-5.511-4.583l-79.508-26.985c-12.688-4.762-19.395-15.627-16.321-26.463l.006-.021.007-.025a19.355 19.355 0 0 1 9.247-11.656 19.351 19.351 0 0 1 14.683-1.757l89.593 28.391c5.266 1.671 10.886-1.247 12.554-6.512 1.668-5.265-1.247-10.885-6.512-12.554l-71.255-22.58-.622-.622-.019-.019-36.89-36.89 31.708-11.354c.107-.039.239-.088.345-.131l.105-.042a9.59 9.59 0 0 0 .403-.174c21.436-9.852 41.812-3.955 49.799-.849 30.183 13.581 46.293 22.87 58.063 29.657 16.364 9.437 24.249 13.984 46.518 15.823v80.542zm37.884-6.015H414.66V72.525h17.883v87.443zm59.457 0h-39.457V53.891H492v106.077z"/></symbol><symbol id="phone-receiver" viewBox="0 0 578.106 578.106"><path d="M577.83 456.128c1.225 9.385-1.635 17.545-8.568 24.48l-81.396 80.781c-3.672 4.08-8.465 7.551-14.381 10.404-5.916 2.857-11.729 4.693-17.439 5.508-.408 0-1.635.105-3.676.309-2.037.203-4.689.307-7.953.307-7.754 0-20.301-1.326-37.641-3.979s-38.555-9.182-63.645-19.584c-25.096-10.404-53.553-26.012-85.376-46.818-31.823-20.805-65.688-49.367-101.592-85.68-28.56-28.152-52.224-55.08-70.992-80.783-18.768-25.705-33.864-49.471-45.288-71.299-11.425-21.828-19.993-41.616-25.705-59.364S4.59 177.362 2.55 164.51-.306 141.56.102 134.216c.408-7.344.612-11.424.612-12.24.816-5.712 2.652-11.526 5.508-17.442s6.324-10.71 10.404-14.382L98.022 8.756c5.712-5.712 12.24-8.568 19.584-8.568 5.304 0 9.996 1.53 14.076 4.59s7.548 6.834 10.404 11.322l65.484 124.236c3.672 6.528 4.692 13.668 3.06 21.42-1.632 7.752-5.1 14.28-10.404 19.584l-29.988 29.988c-.816.816-1.53 2.142-2.142 3.978s-.918 3.366-.918 4.59c1.632 8.568 5.304 18.36 11.016 29.376 4.896 9.792 12.444 21.726 22.644 35.802s24.684 30.293 43.452 48.653c18.36 18.77 34.68 33.354 48.96 43.76 14.277 10.4 26.215 18.053 35.803 22.949 9.588 4.896 16.932 7.854 22.031 8.871l7.648 1.531c.816 0 2.145-.307 3.979-.918 1.836-.613 3.162-1.326 3.979-2.143l34.883-35.496c7.348-6.527 15.912-9.791 25.705-9.791 6.938 0 12.443 1.223 16.523 3.672h.611l118.115 69.768c8.571 5.308 13.67 12.038 15.303 20.198z"/></symbol><symbol id="ruble" viewBox="0 0 512 512"><path d="M86 256c0-5.52-4.48-10-10-10s-10 4.48-10 10 4.48 10 10 10 10-4.48 10-10zm0 0"/><path d="M256 66c-90.133 0-166.148 63.273-185.332 148.031-1.223 5.387 2.156 10.742 7.543 11.961 5.387 1.215 10.742-2.156 11.96-7.543C107.548 141.703 177.286 86 256 86c93.738 0 170 76.262 170 170s-76.262 170-170 170c-78.715 0-148.453-55.703-165.828-132.45a9.992 9.992 0 0 0-11.961-7.542c-5.387 1.219-8.766 6.574-7.543 11.96C89.868 382.786 165.934 446 256 446c104.766 0 190-85.234 190-190S360.766 66 256 66zm0 0"/><path d="M256 0C118.48 0 0 117.723 0 256c0 137.89 118.117 256 256 256 137.52 0 256-117.723 256-256C512 118.11 393.883 0 256 0zm0 492C130.281 492 20 381.719 20 256S130.281 20 256 20s236 110.281 236 236-110.281 236-236 236zm0 0"/><path d="M176 286c-5.523 0-10 4.477-10 10s4.477 10 10 10h10v70c0 5.523 4.477 10 10 10s10-4.477 10-10v-70h70c5.523 0 10-4.477 10-10s-4.477-10-10-10h-70v-20h80c16.02 0 31.086-6.242 42.422-17.578S346 222.02 346 206c0-33.086-26.914-60-60-60h-90c-5.523 0-10 4.477-10 10v90h-10c-5.523 0-10 4.477-10 10s4.477 10 10 10h10v20zm30-120h80c22.055 0 40 17.945 40 40 0 10.68-4.164 20.723-11.723 28.277C306.72 241.836 296.68 246 286 246h-80zm0 0"/></symbol><symbol id="safety" viewBox="0 0 64 64"><path d="M58.581 20.922a4.094 4.094 0 0 0-4.73 3.043l-2.362 8.8a3.99 3.99 0 0 0-4.2-.126l-6.838 4.011A9.034 9.034 0 0 0 36 44.412V52h-2a1 1 0 0 0-1 1v8a1 1 0 0 0 1 1h18a1 1 0 0 0 1-1v-8a1 1 0 0 0-1-1h-2v-1.16a3 3 0 0 1 1.047-2.278l4.663-4a4.985 4.985 0 0 0 1.576-2.5l4.339-16.192a3.951 3.951 0 0 0 .135-1.041 4.017 4.017 0 0 0-3.179-3.907zM51 60H35v-6h16zm8.694-34.649l-4.34 16.194a2.984 2.984 0 0 1-.945 1.5l-4.663 4A5 5 0 0 0 48 50.84V52H38v-7.588a7.026 7.026 0 0 1 3.458-6.038l6.83-4.007a2.009 2.009 0 0 1 1-.267 1.973 1.973 0 0 1 1.787 1.1 2.1 2.1 0 0 1-.911 2.711l-5.6 3.227a1 1 0 1 0 1 1.734l5.6-3.227a4.083 4.083 0 0 0 1.869-4.907l2.751-10.25a2.122 2.122 0 0 1 2.387-1.6 2.007 2.007 0 0 1 1.589 1.942 1.972 1.972 0 0 1-.066.521zM30 52h-2v-7.588a9.034 9.034 0 0 0-4.446-7.763l-6.846-4.016a3.994 3.994 0 0 0-4.2.13l-2.361-8.8a4.1 4.1 0 0 0-4.732-3.043 4.006 4.006 0 0 0-3.044 4.947l4.34 16.194a4.976 4.976 0 0 0 1.575 2.5l4.663 4A3 3 0 0 1 14 50.84V52h-2a1 1 0 0 0-1 1v8a1 1 0 0 0 1 1h18a1 1 0 0 0 1-1v-8a1 1 0 0 0-1-1zm-15.746-4.957l-4.663-4a2.977 2.977 0 0 1-.945-1.5L4.306 25.35a1.97 1.97 0 0 1-.066-.52 2.007 2.007 0 0 1 1.591-1.951 2.125 2.125 0 0 1 2.387 1.6l2.751 10.249a4.083 4.083 0 0 0 1.869 4.908l5.6 3.227a1 1 0 1 0 1-1.734l-5.6-3.227a2.1 2.1 0 0 1-.912-2.711A1.976 1.976 0 0 1 14.71 34.1a2 2 0 0 1 .994.262l6.838 4.013A7.023 7.023 0 0 1 26 44.412V52H16v-1.16a5 5 0 0 0-1.746-3.797zM29 60H13v-6h16zM48 15.6V3a1 1 0 0 0-1.5-.868l-1.425.814a10.978 10.978 0 0 1-10.375.289l-2.261-1.13a1 1 0 0 0-.894 0L29.3 3.231a10.975 10.975 0 0 1-10.379-.286L17.5 2.132A1 1 0 0 0 16 3v12.6a24.956 24.956 0 0 0 13.235 22.059l2.294 1.223a1 1 0 0 0 .942 0l2.294-1.223A24.954 24.954 0 0 0 48 15.6zM32 36.867l-1.823-.973A22.959 22.959 0 0 1 18 15.6V4.723a12.972 12.972 0 0 0 12.192.3l1.8-.9 1.814.906A12.971 12.971 0 0 0 46 4.723V15.6a22.957 22.957 0 0 1-12.177 20.294z"/><path d="M44 9.034a1 1 0 0 0-1.211-.978 15.122 15.122 0 0 1-9.873-1.243l-.472-.235a1 1 0 0 0-.9 0l-.462.231a15.117 15.117 0 0 1-9.876 1.246A1 1 0 0 0 20 9.033V15.6a20.96 20.96 0 0 0 11.118 18.529l.411.22a1 1 0 0 0 .941 0l.412-.22A20.96 20.96 0 0 0 44 15.6zM42 15.6a18.965 18.965 0 0 1-10 16.733A18.965 18.965 0 0 1 22 15.6v-5.373A17.141 17.141 0 0 0 31.982 8.6L32 8.59l.024.013A17.12 17.12 0 0 0 42 10.228z"/><path d="M37.657 13.929L30 21.586l-3.122-3.122a1 1 0 0 0-1.414 1.414l3.829 3.829a1 1 0 0 0 1.414 0l8.364-8.364a1 1 0 1 0-1.414-1.414z"/></symbol><symbol id="settings" viewBox="0 0 54 54"><path d="M51.22 21h-5.052c-.812 0-1.481-.447-1.792-1.197s-.153-1.54.42-2.114l3.572-3.571a2.763 2.763 0 0 0 .814-1.966c0-.743-.289-1.441-.814-1.967l-4.553-4.553c-1.05-1.05-2.881-1.052-3.933 0l-3.571 3.571c-.574.573-1.366.733-2.114.421A1.885 1.885 0 0 1 33 7.832V2.78A2.783 2.783 0 0 0 30.22 0h-6.44A2.783 2.783 0 0 0 21 2.78v5.052c0 .812-.447 1.481-1.197 1.792-.748.313-1.54.152-2.114-.421l-3.571-3.571c-1.052-1.052-2.883-1.05-3.933 0l-4.553 4.553a2.764 2.764 0 0 0-.814 1.967c0 .742.289 1.44.814 1.966l3.572 3.571c.573.574.73 1.364.42 2.114S8.644 21 7.832 21H2.78A2.783 2.783 0 0 0 0 23.78v6.439A2.783 2.783 0 0 0 2.78 33h5.052c.812 0 1.481.447 1.792 1.197s.153 1.54-.42 2.114l-3.572 3.571a2.763 2.763 0 0 0-.814 1.966c0 .743.289 1.441.814 1.967l4.553 4.553c1.051 1.051 2.881 1.053 3.933 0l3.571-3.572a1.887 1.887 0 0 1 2.114-.42c.75.311 1.197.98 1.197 1.792v5.052A2.783 2.783 0 0 0 23.78 54h6.439a2.783 2.783 0 0 0 2.78-2.78v-5.052c0-.812.447-1.481 1.197-1.792a1.885 1.885 0 0 1 2.114.42l3.571 3.572c1.052 1.052 2.883 1.05 3.933 0l4.553-4.553a2.764 2.764 0 0 0 .814-1.967c0-.742-.289-1.44-.814-1.966l-3.572-3.571c-.573-.574-.73-1.364-.42-2.114S45.356 33 46.168 33h5.052A2.783 2.783 0 0 0 54 30.22v-6.44A2.783 2.783 0 0 0 51.22 21zm.78 9.22c0 .43-.35.78-.78.78h-5.052a3.879 3.879 0 0 0-3.64 2.432 3.877 3.877 0 0 0 .854 4.294l3.572 3.571a.78.78 0 0 1 0 1.104l-4.553 4.553a.78.78 0 0 1-1.104 0l-3.571-3.572c-1.149-1.149-2.794-1.474-4.294-.854A3.879 3.879 0 0 0 31 46.168v5.052c0 .43-.35.78-.78.78h-6.44c-.43 0-.78-.35-.78-.78v-5.052a3.879 3.879 0 0 0-2.432-3.64 3.985 3.985 0 0 0-1.533-.311c-1.014 0-1.997.4-2.761 1.164l-3.571 3.572a.78.78 0 0 1-1.104 0L7.046 42.4a.78.78 0 0 1 0-1.104l3.572-3.571a3.879 3.879 0 0 0 .854-4.294A3.88 3.88 0 0 0 7.832 31H2.78c-.43 0-.78-.35-.78-.78v-6.44c0-.43.35-.78.78-.78h5.052a3.879 3.879 0 0 0 3.64-2.432 3.877 3.877 0 0 0-.854-4.294l-3.572-3.571a.78.78 0 0 1 0-1.104l4.553-4.553a.78.78 0 0 1 1.104 0l3.571 3.571a3.88 3.88 0 0 0 4.294.854A3.876 3.876 0 0 0 23 7.832V2.78c0-.43.35-.78.78-.78h6.439c.431 0 .781.35.781.78v5.052c0 1.624.932 3.019 2.432 3.64a3.878 3.878 0 0 0 4.294-.854l3.571-3.571a.78.78 0 0 1 1.104 0l4.553 4.553a.78.78 0 0 1 0 1.104l-3.572 3.571a3.879 3.879 0 0 0-.854 4.294 3.879 3.879 0 0 0 3.64 2.432h5.052a.78.78 0 0 1 .78.779v6.44z"/><path d="M27 18c-4.963 0-9 4.037-9 9s4.037 9 9 9 9-4.037 9-9-4.037-9-9-9zm0 16c-3.859 0-7-3.141-7-7s3.141-7 7-7 7 3.141 7 7-3.141 7-7 7z"/></symbol><symbol id="shield" viewBox="0 0 512.001 512.001"><path d="M504 71.231a7.5 7.5 0 0 0-5.559-6.843L257.744.253a7.514 7.514 0 0 0-3.865 0L13.557 64.389a7.503 7.503 0 0 0-5.556 6.832c-.167 3-3.758 74.526 24.369 164.954 16.531 53.146 40.663 101.67 71.727 144.226 38.858 53.234 88.698 97.185 148.134 130.636a7.497 7.497 0 0 0 7.196.088c59.536-31.624 109.459-74.46 148.38-127.319 31.099-42.237 55.258-90.903 71.806-144.648C507.755 147.755 504.167 74.314 504 71.231zM465.12 235.25c-16.08 52.042-39.491 99.117-69.583 139.92-35.099 47.591-79.482 86.764-132.035 116.593v-38.585c68.129-43.011 119.511-103.897 152.726-181.048 27.349-63.523 36.261-123.823 38.921-163.223a7.499 7.499 0 0 0-5.553-7.753l-15.295-4.075a7.501 7.501 0 0 0-3.862 14.496l9.287 2.475c-3.077 38.196-12.153 93.793-37.277 152.148-31.816 73.903-80.874 132.291-145.855 173.619a420.02 420.02 0 0 1-19.119-13.416 7.5 7.5 0 0 0-8.96 12.032 433.468 433.468 0 0 0 19.984 14v39.085c-52.577-31.452-96.972-71.664-132.082-119.684-30.083-41.145-53.485-88.108-69.557-139.584C23.727 158.154 22.596 95.692 22.836 77.439l225.663-60.224v34.259L62.511 101.11a7.502 7.502 0 0 0-5.548 7.782c1.937 27.106 7.389 69.279 22.368 116.268 24.763 77.682 66.353 142.489 123.614 192.622a7.471 7.471 0 0 0 4.939 1.857 7.5 7.5 0 0 0 4.944-13.144c-55.176-48.306-95.282-110.849-119.204-185.89-13.438-42.155-18.972-80.313-21.213-106.608l183.413-48.948 142.195 37.889a7.5 7.5 0 0 0 3.862-14.496l-138.38-36.873V17.312l225.661 60.13c.248 18.565-.834 82.7-24.042 157.808z"/><path d="M368.849 175.256c-4.443-4.45-10.354-6.899-16.644-6.899-6.291 0-12.202 2.449-16.641 6.895l-95.597 95.593-52.19-52.186c-4.441-4.448-10.353-6.898-16.643-6.898-6.291 0-12.201 2.449-16.639 6.893-4.446 4.445-6.897 10.355-6.897 16.643a23.369 23.369 0 0 0 6.895 16.64l68.829 68.83c4.443 4.448 10.353 6.898 16.644 6.898 6.291 0 12.201-2.449 16.641-6.895l112.236-112.236c4.447-4.443 6.897-10.354 6.897-16.642s-2.449-12.198-6.891-16.636zm-10.612 22.668L245.996 310.165c-1.608 1.61-3.749 2.497-6.03 2.497s-4.422-.887-6.033-2.5l-68.834-68.835a8.47 8.47 0 0 1-2.499-6.031c0-2.28.888-4.42 2.504-6.037a8.466 8.466 0 0 1 6.03-2.497c2.279 0 4.42.887 6.033 2.5l57.497 57.493a7.501 7.501 0 0 0 10.607 0l100.905-100.901c1.608-1.61 3.75-2.497 6.03-2.497s4.42.887 6.034 2.502c1.611 1.61 2.499 3.752 2.499 6.031s-.889 4.422-2.502 6.034z"/></symbol><symbol id="success" viewBox="0 0 52 52"><path d="M26 0C11.664 0 0 11.663 0 26s11.664 26 26 26 26-11.663 26-26S40.336 0 26 0zm0 50C12.767 50 2 39.233 2 26S12.767 2 26 2s24 10.767 24 24-10.767 24-24 24z"/><path d="M38.252 15.336l-15.369 17.29-9.259-7.407a1 1 0 0 0-1.249 1.562l10 8a.999.999 0 0 0 1.373-.117l16-18a1 1 0 1 0-1.496-1.328z"/></symbol><symbol id="suitcase" viewBox="0 -24 480 480"><path d="M456 72H352V40c-.027-22.082-17.918-39.973-40-40H168c-22.082.027-39.973 17.918-40 40v32H24C10.746 72 0 82.746 0 96v178.078a24.105 24.105 0 0 0 16 22.586V408c0 13.254 10.746 24 24 24h400c13.254 0 24-10.746 24-24V296.672a24.113 24.113 0 0 0 16-22.594V96c0-13.254-10.746-24-24-24zM144 40c0-13.254 10.746-24 24-24h144c13.254 0 24 10.746 24 24v32h-16V40a8 8 0 0 0-8-8H168a8 8 0 0 0-8 8v32h-16zm160 32H176V48h128zm144 336a8 8 0 0 1-8 8H40a8 8 0 0 1-8-8V299.414l176 24.274V344c0 13.254 10.746 24 24 24h16c13.254 0 24-10.746 24-24v-20.313l176-24.273zm-192-64a8 8 0 0 1-8 8h-16a8 8 0 0 1-8-8v-48a8 8 0 0 1 8-8h16a8 8 0 0 1 8 8zm208-69.922a8 8 0 0 1-6.879 7.93l-2.219.305L272 307.534V296c0-13.254-10.746-24-24-24h-16c-13.254 0-24 10.746-24 24v11.535L22.887 282.008a8.001 8.001 0 0 1-6.887-7.93V96a8 8 0 0 1 8-8h432a8 8 0 0 1 8 8zm0 0"/></symbol><symbol id="tap" viewBox="-73 0 512 512.15596"><path d="M1.781 232.434a26.718 26.718 0 0 0 7.73 29.754c16.29 16.3 49.79 75.144 66.372 116.609 11.316 28.281 36.164 56.039 55.015 74.351a42.362 42.362 0 0 1 12.645 30.286v3.12c0 14.141 11.46 25.602 25.602 25.602h136.53c14.141 0 25.602-11.46 25.602-25.601V460.34a7.827 7.827 0 0 1 2.278-5.809c31.496-28.8 31.855-76.879 31.855-78.91v-135.09c.317-18.273-13.46-33.722-31.648-35.488a34.116 34.116 0 0 0-19.551 4.648v-13.27a33.933 33.933 0 0 0-17.219-29.726 33.927 33.927 0 0 0-34.347.535 33.732 33.732 0 0 0-50.836-25.796V127.3a67.41 67.41 0 0 0 34.136-58.88c0-37.702-30.566-68.265-68.27-68.265S109.41 30.72 109.41 68.422a67.415 67.415 0 0 0 34.133 58.879v137.386a94.409 94.409 0 0 1-4.063 29.758 8.626 8.626 0 0 1-6.152 5.735 8.223 8.223 0 0 1-7.68-2.016 121.288 121.288 0 0 1-17.644-21.144c-14.809-22.153-52.07-63.532-75.395-63.532a33.427 33.427 0 0 0-30.828 18.946zM126.477 68.422c0-28.277 22.921-51.2 51.199-51.2 28.277 0 51.199 22.923 51.199 51.2a50.682 50.682 0 0 1-17.066 38.215V68.422c0-18.852-15.282-34.133-34.133-34.133-18.852 0-34.133 15.281-34.133 34.133v38.215a50.695 50.695 0 0 1-17.066-38.215zm-32.7 218.07a138.648 138.648 0 0 0 20.164 24.106 25.249 25.249 0 0 0 23.536 6.136 25.72 25.72 0 0 0 18.175-16.828 111.14 111.14 0 0 0 4.957-35.219V68.423c0-9.426 7.641-17.067 17.067-17.067s17.066 7.641 17.066 17.067v179.2a8.534 8.534 0 1 0 17.067 0v-76.798c0-9.426 7.644-17.066 17.066-17.066 9.426 0 17.07 7.64 17.07 17.066v76.797a8.533 8.533 0 1 0 17.067 0v-51.2c0-9.425 7.64-17.066 17.066-17.066s17.067 7.641 17.067 17.067v59.734a8.533 8.533 0 0 0 17.066 0V239.09a16.921 16.921 0 0 1 5.008-12.059 17.267 17.267 0 0 1 13.312-4.965c9.219 1.204 16.04 9.172 15.813 18.465v135.09c0 .418-.434 42.668-26.317 66.324a24.902 24.902 0 0 0-7.816 18.395v26.215a8.534 8.534 0 0 1-8.535 8.535H169.145a8.534 8.534 0 0 1-8.536-8.535v-3.121a59.557 59.557 0 0 0-17.824-42.532c-14.457-14.035-40.312-41.609-51.047-68.453-17.562-43.879-52.308-104.476-70.16-122.328-4.062-4.059-5.422-7.816-4.039-11.16a16.827 16.827 0 0 1 15.07-8.406c11.598 0 43.043 28.75 61.168 55.937zm0 0"/><path d="M322.742 367.09a8.534 8.534 0 0 0 8.535-8.535v-51.2c0-4.71-3.82-8.53-8.535-8.53a8.532 8.532 0 0 0-8.531 8.53v51.2a8.533 8.533 0 0 0 8.531 8.535zm0 0M314.21 418.29a8.52 8.52 0 0 0 6.032-2.5 34.644 34.644 0 0 0 11.035-23.103 8.426 8.426 0 0 0-8.328-8.41 8.582 8.582 0 0 0-8.738 8.215 18.773 18.773 0 0 1-6.035 11.23 8.535 8.535 0 0 0 6.035 14.567zm0 0M186.21 478.023h8.532a8.534 8.534 0 1 0 0-17.066h-8.531a8.533 8.533 0 1 0 0 17.066zm0 0M228.875 478.023h59.734a8.534 8.534 0 1 0 0-17.066h-59.734a8.532 8.532 0 0 0-8.531 8.531 8.533 8.533 0 0 0 8.531 8.535zm0 0M109.41 141.29a8.533 8.533 0 0 0 6.223-14.38C86.066 95.66 84.46 47.266 111.895 14.125a8.542 8.542 0 0 0 1.574-8.504A8.539 8.539 0 0 0 106.8.11a8.532 8.532 0 0 0-8.059 3.145c-32.906 39.766-31 97.828 4.45 135.348a8.538 8.538 0 0 0 6.218 2.687zm0 0M257.32 118.684a8.528 8.528 0 0 0 6.508.527 8.524 8.524 0 0 0 4.977-4.23c18.656-36.329 13.86-80.282-12.196-111.727a8.528 8.528 0 0 0-8.058-3.145 8.539 8.539 0 0 0-6.664 5.512 8.524 8.524 0 0 0 1.574 8.504c21.71 26.195 25.707 62.813 10.164 93.074-2.152 4.192-.496 9.332 3.695 11.485zm0 0"/></symbol><symbol id="temp-icon-left-arrow" viewBox="0 0 31.494 31.494"><path d="M10.273 5.01a1.117 1.117 0 0 1 1.587 1.57l-8.047 8.047h26.554c.62 0 1.127.492 1.127 1.11 0 .62-.508 1.128-1.127 1.128H3.813l8.047 8.032c.43.444.43 1.16 0 1.587a1.112 1.112 0 0 1-1.587 0L.32 16.532a1.12 1.12 0 0 1 0-1.57l9.953-9.953z" fill="#1E201D"/></symbol><symbol id="temp-icon-right-arrow" viewBox="0 0 31.49 31.49"><path d="M21.205 5.007a1.117 1.117 0 0 0-1.587 1.57l8.047 8.048H1.11c-.618 0-1.11.493-1.11 1.112 0 .62.492 1.127 1.11 1.127h26.555l-8.047 8.032c-.43.444-.43 1.16 0 1.587.444.444 1.16.444 1.587 0l9.952-9.952a1.092 1.092 0 0 0 0-1.57l-9.952-9.95z" fill="#1E201D"/></symbol><symbol id="time" viewBox="0 0 512 512"><path d="M256 284.09c78.299 0 142-63.701 142-142S334.299.09 256 .09s-142 63.701-142 142 63.701 142 142 142zm0-264c67.271 0 122 54.729 122 122s-54.729 122-122 122-122-54.729-122-122 54.729-122 122-122z"/><path d="M345.523 152.202h8.493c5.522 0 10-4.477 10-10s-4.478-10-10-10h-8.493c-5.522 0-10 4.477-10 10s4.478 10 10 10zM176.477 141.978c0-5.523-4.478-10-10-10h-8.493c-5.522 0-10 4.477-10 10s4.478 10 10 10h8.493c5.522 0 10-4.477 10-10zM256.112 62.566c5.522 0 10-4.477 10-10v-8.493c0-5.523-4.478-10-10-10s-10 4.477-10 10v8.493c0 5.523 4.478 10 10 10zM255.888 221.613c-5.522 0-10 4.477-10 10v8.493c0 5.523 4.478 10 10 10s10-4.477 10-10v-8.493c0-5.523-4.478-10-10-10zM248.832 149.064l.112.112A9.967 9.967 0 0 0 256 152.09c2.56 0 5.119-.977 7.071-2.929L332.2 80.032c3.905-3.905 3.905-10.237 0-14.143-3.906-3.905-10.236-3.904-14.143 0L256 127.948l-36.052-36.052c-3.905-3.905-10.235-3.905-14.143 0-3.905 3.905-3.905 10.237 0 14.142l43.027 43.026zM473.325 282.101a36.239 36.239 0 0 0-48.41 2.62l-70.445 70.445a34.345 34.345 0 0 0-25.761-29.011l-94.569-23.693a83.422 83.422 0 0 0-58.479 6.748l-57.978 29.837-5.465-9.465a15.757 15.757 0 0 0-9.63-7.39 15.77 15.77 0 0 0-12.031 1.585l-57.343 33.106c-7.571 4.371-10.175 14.088-5.804 21.66l72.418 125.431a15.756 15.756 0 0 0 9.628 7.39 15.77 15.77 0 0 0 12.033-1.584l57.341-33.106c7.572-4.371 10.177-14.088 5.805-21.661l-56.941-98.625 57.117-29.395a63.434 63.434 0 0 1 44.467-5.131l94.569 23.693a14.375 14.375 0 0 1 10.896 13.963c0 7.937-6.457 14.394-14.395 14.394h-74.329c-5.522 0-10 4.478-10 10s4.478 10 10 10h82.937c9.706 0 18.831-3.779 25.694-10.643l84.405-84.405a16.27 16.27 0 0 1 21.734-1.177c3.655 2.938 5.808 7.137 6.061 11.819.254 4.683-1.433 9.088-4.749 12.403l-88.95 88.95c-12.129 12.13-28.256 18.81-45.409 18.81h-81.597c-5.522 0-10 4.478-10 10s4.478 10 10 10h81.597c22.495 0 43.645-8.761 59.552-24.667l88.95-88.95a36.344 36.344 0 0 0 10.577-27.627 36.331 36.331 0 0 0-13.496-26.324zM149.253 470.655l-24.859-43.057c-2.762-4.781-8.878-6.422-13.66-3.66-4.783 2.762-6.422 8.877-3.66 13.66l24.859 43.058-16.854 9.731-68.276-118.255 50.165-28.963 68.274 118.254-15.989 9.232zM462 33.901c5.522 0 10-4.477 10-10V10.09c0-5.523-4.478-10-10-10s-10 4.477-10 10v13.811c0 5.523 4.478 10 10 10zM462 100.09c5.522 0 10-4.477 10-10V76.279c0-5.523-4.478-10-10-10s-10 4.477-10 10V90.09c0 5.523 4.478 10 10 10zM502 40.09h-13.812c-5.522 0-10 4.477-10 10s4.478 10 10 10H502c5.522 0 10-4.477 10-10s-4.478-10-10-10zM422 60.09h13.812c5.522 0 10-4.477 10-10s-4.478-10-10-10H422c-5.522 0-10 4.477-10 10s4.478 10 10 10zM50 239.901c5.522 0 10-4.477 10-10V216.09c0-5.523-4.478-10-10-10s-10 4.477-10 10v13.811c0 5.523 4.478 10 10 10zM50 306.09c5.522 0 10-4.478 10-10v-13.812c0-5.522-4.478-10-10-10s-10 4.478-10 10v13.812c0 5.522 4.478 10 10 10zM76.188 266.09H90c5.522 0 10-4.478 10-10 0-5.523-4.478-10-10-10H76.188c-5.522 0-10 4.477-10 10 0 5.522 4.478 10 10 10zM33.812 256.09c0-5.523-4.478-10-10-10H10c-5.522 0-10 4.477-10 10 0 5.522 4.478 10 10 10h13.812c5.522 0 10-4.478 10-10z"/><path d="M206.149 429.667c-2.64 0-5.21 1.07-7.069 2.93-1.87 1.86-2.931 4.44-2.931 7.07s1.061 5.21 2.931 7.07a10.076 10.076 0 0 0 7.069 2.93c2.631 0 5.21-1.07 7.07-2.93 1.86-1.86 2.93-4.44 2.93-7.07s-1.069-5.21-2.93-7.07a10.074 10.074 0 0 0-7.07-2.93zM88.66 390.887c-1.86 1.86-2.931 4.44-2.931 7.07s1.07 5.21 2.931 7.07a10.076 10.076 0 0 0 7.069 2.93c2.641 0 5.21-1.07 7.07-2.93 1.87-1.86 2.93-4.44 2.93-7.07s-1.06-5.21-2.93-7.07a10.062 10.062 0 0 0-7.07-2.93c-2.629 0-5.209 1.07-7.069 2.93z"/></symbol><symbol id="wallet" viewBox="0 0 512.001 512.001"><path d="M457.971 201.856h-2.982V152.92c0-23.706-15.186-43.923-36.34-51.457l-17.197-52.898a8.933 8.933 0 0 0-11.488-5.653l-25.174 8.952-8.836-27.169a8.934 8.934 0 0 0-11.485-5.654L220.71 63.036C208.935 26.508 174.629 0 134.236 0 84.144 0 43.39 40.752 43.39 90.844c0 2.484.129 4.976.332 7.466H32.215a8.931 8.931 0 0 0-8.932 8.932V421.19a8.931 8.931 0 0 0 8.932 8.932h24.14l192.471 81.175a8.93 8.93 0 0 0 10.987-3.406l26.843-41.824 74.453 16.388a8.96 8.96 0 0 0 1.926.211 8.938 8.938 0 0 0 8.56-6.397l13.673-46.146h15.111c30.113 0 54.612-24.499 54.612-54.611v-48.936h2.982c16.954 0 30.747-13.793 30.747-30.747v-63.226c-.003-16.955-13.796-30.747-30.749-30.747zM387.299 62.82l11.538 35.489h-18.943l-9.578-29.451 16.983-6.038zm-45.494-23.871l19.304 59.362H224.748c.204-2.488.331-4.981.331-7.466a91.28 91.28 0 0 0-.587-10.193l117.313-41.703zM134.236 17.865c40.24 0 72.978 32.738 72.978 72.979 0 2.484-.13 4.978-.382 7.466h-21.299c.354-2.457.535-4.949.535-7.466 0-28.581-23.252-51.834-51.833-51.834S82.4 62.263 82.4 90.844c0 2.518.181 5.009.535 7.466H61.637a74.47 74.47 0 0 1-.382-7.466c0-40.241 32.739-72.979 72.981-72.979zm33.967 72.978c0 2.539-.285 5.034-.829 7.466h-66.28a34.141 34.141 0 0 1-.829-7.466c0-18.731 15.239-33.97 33.97-33.97s33.968 15.239 33.968 33.97zm80.636 401.071l-146.513-61.791h21.026l144.705 31.851-19.218 29.94zm107.988-28.694l-150.368-33.098h160.173l-9.805 33.098zm80.298-87.708h-.001c0 20.261-16.485 36.746-36.747 36.746H41.148V116.174h359.23c20.262 0 36.747 16.485 36.747 36.746v48.936H326.43c-16.954 0-30.747 13.793-30.747 30.747v63.226c0 16.954 13.793 30.747 30.747 30.747h110.695v48.936zm33.727-79.682c0 7.103-5.78 12.882-12.882 12.882H326.429c-7.103 0-12.882-5.779-12.882-12.882v-63.226c0-7.103 5.78-12.882 12.882-12.882H457.97c7.103 0 12.882 5.779 12.882 12.882v63.226z"/><path d="M364.974 232.581c-17.443 0-31.636 14.192-31.636 31.635s14.192 31.635 31.636 31.635 31.636-14.192 31.636-31.635-14.191-31.635-31.636-31.635zm0 45.405c-7.594 0-13.771-6.178-13.771-13.77s6.178-13.77 13.771-13.77 13.771 6.178 13.771 13.77-6.177 13.77-13.771 13.77z"/></symbol></svg>